/vscmnt/brussel_pixiu_data/_data_brussel/112/vsc11236/PredSimResults/SUBJ06opt3D/trackIG/worker_01.mot
version=1
nRows=9
nColumns=50
inDegrees=yes
endheader
                time	         pelvis_tilt	         pelvis_list	     pelvis_rotation	           pelvis_tx	           pelvis_ty	           pelvis_tz	       hip_flexion_r	     hip_adduction_r	      hip_rotation_r	        knee_angle_r	       ankle_angle_r	         mtp_angle_r	       hip_flexion_l	     hip_adduction_l	      hip_rotation_l	        knee_angle_l	       ankle_angle_l	         mtp_angle_l	    lumbar_extension	      lumbar_bending	     lumbar_rotation	 ercspn_r/activation	 intobl_r/activation	 extobl_r/activation	    abd_r/activation	    add_r/activation	hamstrings_r/activation	bifemsh_r/activation	glut_max_r/activation	iliopsoas_r/activation	rect_fem_r/activation	  vasti_r/activation	gastroc_r/activation	 soleus_r/activation	tib_ant_r/activation	 ercspn_l/activation	 intobl_l/activation	 extobl_l/activation	    abd_l/activation	    add_l/activation	hamstrings_l/activation	bifemsh_l/activation	glut_max_l/activation	iliopsoas_l/activation	rect_fem_l/activation	  vasti_l/activation	gastroc_l/activation	 soleus_l/activation	tib_ant_l/activation	
          1.90672444	          0.83976060	         -5.07118412	         10.20985612	          1.14403466	          0.95479340	         -0.03503681	         15.45919819	          2.03990638	        -26.30528550	          2.38583693	         -3.78029147	          0.20346915	        -12.21495668	         -8.01205594	        -15.35770173	        -11.54347227	          9.32278432	         27.78197874	         -7.52128219	          2.73744543	         -4.01031336	          0.16823059	          0.19870679	          0.01000288	          0.01000012	          0.14079407	          0.02067310	          0.01000221	          0.01312823	          0.02075537	          0.10241437	          0.07294770	          0.01000150	          0.01125447	          0.40564464	          0.03189039	          0.01000017	          0.01000023	          0.09563527	          0.01000035	          0.01000213	          0.09759622	          0.01736497	          0.14531564	          0.11480165	          0.01305381	          0.18003367	          0.30966287	          0.01318371	
          1.92579168	          0.72368126	         -4.74866945	         10.53682783	          1.16035411	          0.95257231	         -0.03283873	         14.43909483	          1.96743261	        -27.12676785	          2.56795199	         -4.20326971	          0.20035976	        -12.88452043	         -8.11038121	        -15.59603558	        -11.84501393	          8.60641584	         29.19076528	         -6.99936372	          2.83918060	         -4.01141753	          0.14267227	          0.20042930	          0.01000087	          0.01000018	          0.10684233	          0.02815398	          0.01000476	          0.02013017	          0.01575045	          0.07771702	          0.05535667	          0.01000101	          0.01000019	          0.45353921	          0.06263889	          0.01000014	          0.01000029	          0.07257264	          0.01000050	          0.01000254	          0.07406185	          0.01317775	          0.11027325	          0.08711728	          0.02903924	          0.17077348	          0.29399234	          0.01000450	
          1.94485892	          0.60744154	         -4.49730439	         10.78470441	          1.17698346	          0.95091989	         -0.03040298	         13.57037068	          1.94346322	        -27.91647865	          2.54488714	         -4.85692369	          0.18260925	        -13.50611367	         -8.30460646	        -15.83767206	        -12.22398734	          7.62819088	         30.61617544	         -6.45749789	          3.05924371	         -4.01718148	          0.11531247	          0.15209572	          0.01000046	          0.01215771	          0.08107788	          0.03626156	          0.01000414	          0.06698963	          0.01195248	          0.05897546	          0.04200756	          0.01000083	          0.01000029	          0.49485928	          0.10177162	          0.01000011	          0.01000036	          0.05507160	          0.01000068	          0.01000223	          0.05620304	          0.01000066	          0.08368134	          0.06610893	          0.02394244	          0.13710251	          0.27122909	          0.01000019	
          1.96392617	          0.49051633	         -4.32697703	         10.96869237	          1.19369940	          0.95029049	         -0.02763421	         12.84368848	          1.97999587	        -28.54844436	          2.23828088	         -5.16615950	          0.15013099	        -13.92261951	         -8.64365101	        -16.06163899	        -12.90614233	          6.30506436	         32.06607797	         -5.90724007	          3.37169377	         -4.03424404	          0.10476700	          0.11541760	          0.01000055	          0.04851424	          0.06152653	          0.04226287	          0.01025480	          0.05357802	          0.01000142	          0.04475346	          0.03187751	          0.01000106	          0.01000022	          0.50441828	          0.12338614	          0.01000018	          0.01000053	          0.04179098	          0.03636913	          0.01004572	          0.04265141	          0.01000206	          0.06350188	          0.05016673	          0.01816994	          0.10404017	          0.24115998	          0.01000031	
          1.98299341	          0.36929294	         -4.18943637	         11.10645804	          1.21024934	          0.95104484	         -0.02454903	         12.19469101	          2.05216818	        -28.91240764	          1.72895629	         -4.90588346	          0.15767236	        -13.97710113	         -9.10818448	        -16.27209279	        -14.11688775	          4.55010177	         33.54926615	         -5.36912526	          3.70344044	         -4.06541157	          0.09973567	          0.08758446	          0.01000036	          0.06367588	          0.04669000	          0.05050462	          0.08736223	          0.06061190	          0.01000144	          0.03396112	          0.02419033	          0.01000348	          0.01000063	          0.45623997	          0.13777348	          0.01000013	          0.01000046	          0.03171301	          0.07014525	          0.05363639	          0.03237123	          0.01000080	          0.04818865	          0.03806900	          0.01378854	          0.07895077	          0.20496129	          0.01000025	
          2.00206066	          0.24108511	         -4.00218769	         11.20016183	          1.22643479	          0.95315219	         -0.02120700	         11.56437170	          2.09470127	        -29.05172678	          1.15772731	         -4.25729293	          0.26511740	        -13.56021560	         -9.63390677	        -16.47594228	        -16.04790700	          2.41523702	         34.93402294	         -4.86998945	          3.95925590	         -4.10064714	          0.10001481	          0.06646332	          0.01000039	          0.06236574	          0.03543129	          0.06505901	          0.14870232	          0.07197216	          0.01000175	          0.02577138	          0.01835692	          0.01000329	          0.01000027	          0.40231956	          0.13442423	          0.01000017	          0.01000056	          0.02406536	          0.09764034	          0.10562464	          0.02457519	          0.01000076	          0.03656819	          0.02888865	          0.01046378	          0.05991172	          0.16685189	          0.01000022	
          2.02112790	          0.10666616	         -3.68571827	         11.25137180	          1.24212879	          0.95616378	         -0.01768144	         10.92820381	          2.02310082	        -29.07252478	          0.62773314	         -3.63724919	          0.45061194	        -12.61796511	        -10.15426896	        -16.67704371	        -18.82900676	          0.07583642	         35.94541682	         -4.43813875	          4.05718579	         -4.12616188	          0.10135408	          0.05043559	          0.01000040	          0.05482146	          0.02688763	          0.07694924	          0.17645673	          0.09376121	          0.01000166	          0.01955662	          0.01393028	          0.01000174	          0.01000020	          0.36098805	          0.12909162	          0.01000026	          0.01000069	          0.01826195	          0.12709838	          0.13085332	          0.01867602	          0.01000026	          0.02775012	          0.02192217	          0.01000049	          0.04546403	          0.12888904	          0.01000012	
          2.04019515	         -0.02965786	         -3.19020066	         11.26818034	          1.25725302	          0.95952991	         -0.01406389	         10.27702941	          1.77564832	        -29.02223715	          0.14337704	         -3.08020767	          0.73482775	        -11.16189057	        -10.62186676	        -16.96118130	        -22.46777335	         -2.27873904	         36.20445802	         -4.09599698	          3.95329064	         -4.13277672	          0.09665539	          0.03827298	          0.01000041	          0.05114081	          0.02040437	          0.08190323	          0.15861841	          0.10830107	          0.01000134	          0.01484058	          0.01057127	          0.01000164	          0.01000020	          0.32826783	          0.12574141	          0.01000039	          0.01000094	          0.01385805	          0.16576031	          0.13464149	          0.06636080	          0.01000011	          0.02105921	          0.01663568	          0.01000012	          0.03450049	          0.09780758	          0.01000019	
          2.05926239	         -0.16347351	         -2.48486036	         11.25966531	          1.27173408	          0.96288471	         -0.01041976	          9.58629637	          1.32426428	        -28.91369868	         -0.26250004	         -2.55199687	          1.13508731	         -9.23110119	        -11.03328624	        -17.47887975	        -26.93200618	         -4.47193169	         35.26261447	         -3.86421231	          3.62061907	         -4.11809249	          0.07334720	          0.02904344	          0.01000036	          0.04128068	          0.01548489	          0.08394197	          0.12037181	          0.11118508	          0.01000121	          0.01126191	          0.01000116	          0.01000158	          0.01000024	          0.29772202	          0.12485684	          0.01000024	          0.01000096	          0.01051617	          0.19880883	          0.10851065	          0.07713429	          0.01000009	          0.02712431	          0.01262410	          0.01000006	          0.02618161	          0.07651648	          0.01000018	
